<svg width="18" height="17" viewBox="0 0 18 17" fill="none" xmlns="http://www.w3.org/2000/svg">
<g clip-path="url(#clip0)">
<path d="M9.29299 10.5248C9.29299 9.25656 8.68977 8.31914 7.44353 7.96778C8.35282 7.53475 8.82702 6.87869 8.82702 5.85824C8.82702 3.84614 7.32275 3.35547 5.58722 3.35547H0.808838V13.4578H5.72104C7.56294 13.4578 9.29299 12.5773 9.29299 10.5248ZM3.03642 5.08002H5.12674C5.93035 5.08002 6.65366 5.30511 6.65366 6.2343C6.65366 7.09212 6.09093 7.4373 5.29488 7.4373H3.03642V5.08002ZM3.03573 11.7422V8.9601H5.46369C6.44435 8.9601 7.06472 9.36773 7.06472 10.4026C7.06472 11.4231 6.32425 11.7422 5.41771 11.7422H3.03573Z" fill="white"/>
<path d="M13.7076 13.6486C15.4603 13.6486 16.5953 12.8615 17.1416 11.1884H15.3628C15.1714 11.8129 14.3822 12.143 13.77 12.143C12.589 12.143 11.9686 11.4533 11.9686 10.2812H17.2617C17.4291 7.93558 16.1225 5.93652 13.7069 5.93652C11.4704 5.93652 9.95239 7.61235 9.95239 9.80768C9.95239 12.086 11.3908 13.6486 13.7076 13.6486ZM13.6444 7.45452C14.6567 7.45452 15.1659 8.04744 15.251 9.01711H11.9714C12.0379 8.05567 12.6782 7.45452 13.6444 7.45452Z" fill="white"/>
<path d="M11.5603 3.88574H15.6705V4.88104H11.5603V3.88574Z" fill="white"/>
</g>
<defs>
<clipPath id="clip0">
<rect x="0.808838" y="0.26709" width="16.4701" height="16.4701" fill="white"/>
</clipPath>
</defs>
</svg>
