<svg width="18" height="17" viewBox="0 0 18 17" fill="none" xmlns="http://www.w3.org/2000/svg">
<path d="M8.87016 0.26709H8.86604C4.32544 0.26709 0.633057 3.96051 0.633057 8.50213C0.633057 10.3035 1.21363 11.9732 2.2008 13.3289L1.17451 16.3882L4.33985 15.3763C5.64202 16.239 7.19535 16.7372 8.87016 16.7372C13.4108 16.7372 17.1031 13.0427 17.1031 8.50213C17.1031 3.96154 13.4108 0.26709 8.87016 0.26709ZM13.6619 11.896C13.4632 12.457 12.6747 12.9223 12.0458 13.0582C11.6155 13.1498 11.0535 13.2229 9.16147 12.4385C6.7414 11.4359 5.18292 8.97667 5.06145 8.81712C4.94513 8.65757 4.08354 7.51496 4.08354 6.33323C4.08354 5.1515 4.68367 4.57608 4.92557 4.32902C5.12424 4.12624 5.45261 4.03359 5.7676 4.03359C5.86951 4.03359 5.96113 4.03874 6.04348 4.04286C6.28538 4.05315 6.40685 4.06756 6.5664 4.44946C6.76507 4.92812 7.24888 6.10985 7.30653 6.23132C7.3652 6.35279 7.42388 6.51749 7.34153 6.67704C7.26432 6.84174 7.19638 6.91483 7.07492 7.05482C6.95345 7.19482 6.83816 7.30187 6.71669 7.45216C6.60552 7.58289 6.47994 7.72289 6.61993 7.96479C6.75993 8.20155 7.24374 8.99109 7.95607 9.62518C8.8753 10.4435 9.62057 10.705 9.88718 10.8162C10.0859 10.8985 10.3226 10.879 10.4678 10.7246C10.652 10.5259 10.8795 10.1965 11.1111 9.87224C11.2758 9.6396 11.4838 9.61077 11.702 9.69312C11.9243 9.77033 13.1009 10.3519 13.3428 10.4724C13.5847 10.5938 13.7443 10.6515 13.8029 10.7534C13.8606 10.8553 13.8606 11.334 13.6619 11.896Z" fill="white"/>
</svg>
