<svg width="8" height="14" viewBox="0 0 8 14" fill="none" xmlns="http://www.w3.org/2000/svg">
<path fill-rule="evenodd" clip-rule="evenodd" d="M7.41633 0.512726H5.80383C5.39533 0.494128 4.98758 0.563322 4.60808 0.715644C4.22858 0.867966 3.88614 1.09988 3.60385 1.39574C3.32157 1.69161 3.10599 2.04455 2.97165 2.43079C2.83731 2.81702 2.78733 3.22756 2.82508 3.63475V5.07413H1.20586C1.17219 5.07442 1.13891 5.08136 1.10792 5.09454C1.07693 5.10772 1.04884 5.12688 1.02527 5.15094C1.00171 5.17499 0.983117 5.20346 0.970571 5.23471C0.958025 5.26596 0.951772 5.29938 0.952166 5.33305V7.41863C0.951772 7.4523 0.958025 7.48572 0.970571 7.51698C0.983117 7.54823 1.00171 7.57669 1.02527 7.60075C1.04884 7.6248 1.07693 7.64397 1.10792 7.65715C1.13891 7.67033 1.17219 7.67726 1.20586 7.67756H2.82508V12.9404C2.82469 12.974 2.83091 13.0073 2.84341 13.0385C2.85591 13.0697 2.87444 13.0982 2.89793 13.1222C2.92142 13.1463 2.94941 13.1655 2.98032 13.1787C3.01122 13.1919 3.04442 13.1989 3.07803 13.1993H5.19122C5.22486 13.199 5.25811 13.1921 5.28906 13.1789C5.32001 13.1657 5.34804 13.1465 5.37155 13.1224C5.39506 13.0984 5.41358 13.0699 5.42604 13.0387C5.43851 13.0074 5.44467 12.974 5.44417 12.9404V7.67606H7.33798C7.37166 7.67577 7.40495 7.66884 7.43593 7.65566C7.46692 7.64248 7.495 7.62331 7.51857 7.59926C7.54214 7.5752 7.56073 7.54673 7.57328 7.51548C7.58582 7.48423 7.59208 7.45081 7.59169 7.41714V5.33231C7.5917 5.26395 7.5649 5.19832 7.51706 5.1495C7.49367 5.12578 7.46578 5.10697 7.43504 5.09416C7.40429 5.08135 7.37129 5.07479 7.33798 5.07488H5.44417V3.85338C5.41337 3.73119 5.41479 3.6031 5.44831 3.48163C5.48182 3.36016 5.54628 3.24946 5.63538 3.16036C5.72448 3.07126 5.83518 3.0068 5.95665 2.97328C6.07813 2.93977 6.20622 2.93835 6.3284 2.96915H7.41409C7.44789 2.96906 7.48134 2.96227 7.5125 2.94917C7.54367 2.93608 7.57192 2.91695 7.59565 2.89287C7.61938 2.8688 7.6381 2.84027 7.65074 2.80892C7.66338 2.77757 7.66968 2.74403 7.66929 2.71023V0.77016C7.66969 0.702536 7.64331 0.637503 7.59591 0.589267C7.54851 0.541032 7.48395 0.513514 7.41633 0.512726Z" fill="white"/>
</svg>
