<svg width="17" height="17" viewBox="0 0 17 17" fill="none" xmlns="http://www.w3.org/2000/svg">
<path d="M12.0083 0.26709H4.62852C2.12239 0.26709 0.0834961 2.30609 0.0834961 4.81221V12.192C0.0834961 14.6982 2.12239 16.7371 4.62852 16.7371H12.0083C14.5146 16.7371 16.5535 14.6981 16.5535 12.192V4.81221C16.5536 2.30609 14.5146 0.26709 12.0083 0.26709ZM15.0923 12.192C15.0923 13.8924 13.7088 15.2758 12.0084 15.2758H4.62852C2.92815 15.2759 1.54479 13.8924 1.54479 12.192V4.81221C1.54479 3.11185 2.92815 1.72839 4.62852 1.72839H12.0083C13.7087 1.72839 15.0922 3.11185 15.0922 4.81221V12.192H15.0923Z" fill="white"/>
<path d="M8.31812 4.25879C5.978 4.25879 4.07422 6.16257 4.07422 8.50269C4.07422 10.8427 5.978 12.7464 8.31812 12.7464C10.6582 12.7464 12.562 10.8427 12.562 8.50269C12.562 6.16257 10.6582 4.25879 8.31812 4.25879ZM8.31812 11.285C6.78385 11.285 5.53552 10.0369 5.53552 8.50259C5.53552 6.96823 6.78376 5.71999 8.31812 5.71999C9.85248 5.71999 11.1007 6.96823 11.1007 8.50259C11.1007 10.0369 9.85238 11.285 8.31812 11.285Z" fill="white"/>
<path d="M12.7401 3.01953C12.4585 3.01953 12.1818 3.13354 11.983 3.3333C11.7831 3.53208 11.6682 3.80881 11.6682 4.09139C11.6682 4.3731 11.7832 4.64974 11.983 4.84949C12.1817 5.04828 12.4585 5.16326 12.7401 5.16326C13.0227 5.16326 13.2984 5.04828 13.4982 4.84949C13.6979 4.64974 13.8119 4.373 13.8119 4.09139C13.8119 3.80881 13.6979 3.53208 13.4982 3.3333C13.2994 3.13354 13.0227 3.01953 12.7401 3.01953Z" fill="white"/>
</svg>
