<svg width="19" height="10" viewBox="0 0 19 10" fill="none" xmlns="http://www.w3.org/2000/svg">
<path d="M14.9456 6.24998H1.18751C0.531687 6.24998 0 5.69032 0 4.99998C0 4.30964 0.531687 3.74997 1.18751 3.74997H14.9456L13.4102 2.13388C12.9465 1.6458 12.9465 0.854295 13.4102 0.366127C13.8738 -0.122042 14.6258 -0.122042 15.0896 0.366127L18.6519 4.11589C18.6795 4.14481 18.7054 4.17506 18.7301 4.20673C18.7361 4.21448 18.7413 4.22281 18.7471 4.23073C18.7653 4.25498 18.7831 4.27931 18.7994 4.30498C18.8041 4.31248 18.808 4.32039 18.8127 4.32798C18.829 4.35481 18.845 4.38189 18.8594 4.41014C18.8622 4.41573 18.8645 4.42164 18.8672 4.42723C18.8822 4.45781 18.8966 4.48881 18.9092 4.52081C18.9108 4.52473 18.9119 4.52889 18.9134 4.53289C18.9263 4.56656 18.9382 4.60064 18.9484 4.63573C18.9497 4.64014 18.9504 4.64473 18.9516 4.64923C18.9612 4.68364 18.97 4.7184 18.9767 4.75398C18.9787 4.76456 18.9796 4.77548 18.9814 4.78615C18.9863 4.81565 18.9912 4.84515 18.994 4.87523C18.998 4.91648 19 4.95815 19 4.99998C19 5.04181 18.998 5.08348 18.994 5.12481C18.9912 5.15531 18.9861 5.18506 18.9813 5.21481C18.9796 5.22515 18.9787 5.23573 18.9767 5.24598C18.9699 5.2819 18.9612 5.31698 18.9515 5.35173C18.9504 5.35581 18.9496 5.36015 18.9485 5.36423C18.9382 5.39948 18.9263 5.4339 18.9132 5.4679C18.9118 5.47157 18.9108 5.47548 18.9093 5.47915C18.8966 5.5114 18.8821 5.54257 18.867 5.57332C18.8644 5.57873 18.8622 5.5844 18.8595 5.58982C18.8449 5.61823 18.8288 5.64557 18.8123 5.67265C18.8079 5.67998 18.8041 5.68773 18.7995 5.6949C18.7831 5.72065 18.7651 5.74515 18.7471 5.76948C18.7413 5.77732 18.7361 5.78557 18.7302 5.79323C18.7054 5.82482 18.6795 5.85515 18.652 5.88407L15.0897 9.63383C14.8578 9.878 14.5539 10 14.25 10C13.946 10 13.6421 9.878 13.4103 9.63383C12.9465 9.14566 12.9465 8.35424 13.4103 7.86608L14.9456 6.24998Z" fill="#FC3636"/>
</svg>
