<svg width="17" height="17" viewBox="0 0 17 17" fill="none" xmlns="http://www.w3.org/2000/svg">
<g clip-path="url(#clip0)">
<path d="M10.6516 1.29688C14.063 1.29688 16.8279 3.60166 16.8279 6.44378C16.8279 8.08255 15.9035 9.53603 14.4696 10.4769L15.2838 12.1054L13.0655 11.1552C12.5899 11.3241 12.0958 11.463 11.5677 11.5279C11.6398 11.2139 11.681 10.8917 11.681 10.5613C11.681 7.7233 8.91092 5.4144 5.5047 5.4144C5.1928 5.4144 4.8881 5.44013 4.58752 5.47719C5.13103 3.09726 7.63758 1.29688 10.6516 1.29688ZM12.7104 5.15705C13.1365 5.15705 13.4824 4.81118 13.4824 4.38502C13.4824 3.95885 13.1365 3.61298 12.7104 3.61298C12.2842 3.61298 11.9383 3.95885 11.9383 4.38502C11.9383 4.81118 12.2842 5.15705 12.7104 5.15705ZM8.59284 5.15705C9.019 5.15705 9.36488 4.81118 9.36488 4.38502C9.36488 3.95885 9.019 3.61298 8.59284 3.61298C8.16668 3.61298 7.82081 3.95885 7.82081 4.38502C7.82081 4.81118 8.16668 5.15705 8.59284 5.15705Z" fill="white"/>
<path d="M0.357809 10.5609C0.357809 8.28698 2.66259 6.44336 5.50471 6.44336C8.34683 6.44336 10.6516 8.28698 10.6516 10.5609C10.6516 12.8348 8.34683 14.6784 5.50471 14.6784C5.03737 14.6784 4.59268 14.6125 4.16137 14.5188L1.38719 15.7078L2.34657 13.79C1.14426 13.0365 0.357809 11.8775 0.357809 10.5609ZM7.04878 10.3035C7.47494 10.3035 7.82082 9.95766 7.82082 9.5315C7.82082 9.10534 7.47494 8.75946 7.04878 8.75946C6.62262 8.75946 6.27675 9.10534 6.27675 9.5315C6.27675 9.95766 6.62262 10.3035 7.04878 10.3035ZM3.96064 10.3035C4.3868 10.3035 4.73268 9.95766 4.73268 9.5315C4.73268 9.10534 4.3868 8.75946 3.96064 8.75946C3.53448 8.75946 3.1886 9.10534 3.1886 9.5315C3.1886 9.95766 3.53448 10.3035 3.96064 10.3035Z" fill="white"/>
</g>
<defs>
<clipPath id="clip0">
<rect width="16.4701" height="16.4701" transform="matrix(-1 0 0 1 16.8279 0.26709)" fill="white"/>
</clipPath>
</defs>
</svg>
