<svg xmlns="http://www.w3.org/2000/svg" xmlns:xlink="http://www.w3.org/1999/xlink"><defs><clipPath id="behance-usageclip0"><path fill="#fff" d="M.809.267h16.47v16.47H.809z"/></clipPath><clipPath id="wechat-usageclip0"><path transform="matrix(-1 0 0 1 16.828 .267)" fill="#fff" d="M0 0h16.47v16.47H0z"/></clipPath><symbol id="behance-usage" viewBox="0 0 18 17"><g clip-path="url(#behance-usageclip0)" fill="#fff"><path d="M9.293 10.525c0-1.268-.603-2.206-1.85-2.557.91-.433 1.384-1.09 1.384-2.11 0-2.012-1.504-2.503-3.24-2.503H.81v10.103h4.91c1.842 0 3.572-.88 3.572-2.933zM3.036 5.08h2.09c.804 0 1.528.225 1.528 1.154 0 .858-.563 1.203-1.36 1.203H3.037V5.08zm0 6.662V8.96h2.428c.98 0 1.6.408 1.6 1.443 0 1.02-.74 1.34-1.646 1.34H3.036zm10.672 1.907c1.752 0 2.887-.787 3.434-2.46h-1.78c-.19.624-.98.954-1.592.954-1.181 0-1.801-.69-1.801-1.862h5.293c.167-2.345-1.14-4.344-3.555-4.344-2.237 0-3.755 1.675-3.755 3.87 0 2.279 1.439 3.842 3.756 3.842zm-.064-6.194c1.013 0 1.522.592 1.607 1.562h-3.28c.067-.961.707-1.562 1.673-1.562zM11.56 3.886h4.11v.995h-4.11v-.995z"/></g></symbol><symbol id="fb-usage" viewBox="0 0 8 14"><path fill-rule="evenodd" clip-rule="evenodd" d="M7.416.513H5.804a2.86 2.86 0 00-2.979 3.122v1.44h-1.62a.256.256 0 00-.253.258V7.42a.256.256 0 00.254.259h1.62v5.262a.256.256 0 00.252.26h2.113a.255.255 0 00.253-.26V7.676h1.894a.256.256 0 00.254-.259V5.332a.261.261 0 00-.157-.238.25.25 0 00-.097-.02H5.444v-1.22a.728.728 0 01.884-.885h1.086a.256.256 0 00.255-.259V.77a.256.256 0 00-.253-.257z" fill="#fff"/></symbol><symbol id="group-usage" viewBox="0 0 18 17"><path d="M8.87.267h-.004C4.326.267.633 3.961.633 8.502a8.17 8.17 0 001.568 4.827l-1.026 3.06 3.165-1.013a8.163 8.163 0 004.53 1.361c4.54 0 8.233-3.694 8.233-8.235 0-4.54-3.692-8.235-8.233-8.235zm4.792 11.629c-.199.561-.987 1.026-1.616 1.162-.43.092-.992.165-2.885-.62-2.42-1.002-3.978-3.461-4.1-3.62-.116-.16-.977-1.303-.977-2.485 0-1.181.6-1.757.842-2.004.198-.203.527-.295.842-.295.102 0 .193.005.275.009.242.01.364.025.523.406.2.48.683 1.66.74 1.782.06.122.118.286.036.446-.078.165-.146.238-.267.378-.122.14-.237.247-.358.397-.111.13-.237.27-.097.513.14.237.624 1.026 1.336 1.66.92.819 1.665 1.08 1.931 1.191.199.082.436.063.58-.091.185-.2.412-.528.644-.853.165-.232.373-.261.591-.179.222.077 1.399.659 1.64.78.243.12.402.178.46.28.059.102.059.581-.14 1.143z" fill="#fff"/></symbol><symbol id="inst-usage" viewBox="0 0 17 17"><path d="M12.008.267h-7.38A4.55 4.55 0 00.084 4.812v7.38a4.55 4.55 0 004.546 4.545h7.38a4.55 4.55 0 004.544-4.545v-7.38A4.55 4.55 0 0012.008.267zm3.084 11.925c0 1.7-1.383 3.084-3.084 3.084h-7.38a3.087 3.087 0 01-3.083-3.084v-7.38c0-1.7 1.383-3.084 3.084-3.084h7.38c1.7 0 3.083 1.384 3.083 3.084v7.38z" fill="#fff"/><path d="M8.318 4.259a4.249 4.249 0 00-4.244 4.244 4.249 4.249 0 004.244 4.243 4.249 4.249 0 004.244-4.243 4.249 4.249 0 00-4.244-4.244zm0 7.026a2.786 2.786 0 01-2.782-2.782A2.786 2.786 0 018.318 5.72a2.786 2.786 0 012.783 2.783 2.786 2.786 0 01-2.783 2.782zM12.74 3.02a1.076 1.076 0 00-1.072 1.071 1.078 1.078 0 001.072 1.072c.283 0 .558-.115.758-.314a1.077 1.077 0 000-1.516 1.076 1.076 0 00-.758-.313z" fill="#fff"/></symbol><symbol id="red-arrow-usage" viewBox="0 0 19 10"><path d="M14.946 6.25H1.188C.532 6.25 0 5.69 0 5s.532-1.25 1.188-1.25h13.758L13.41 2.134a1.297 1.297 0 010-1.768 1.146 1.146 0 011.68 0l3.562 3.75a1.2 1.2 0 01.078.09l.017.025a.98.98 0 01.052.074l.014.023c.016.027.032.054.046.082l.008.017c.015.03.03.062.042.094l.004.012c.013.034.025.068.035.103l.004.013c.01.035.018.07.025.105l.004.032a1.25 1.25 0 01.013.339c-.003.03-.008.06-.013.09l-.004.031a1.275 1.275 0 01-.026.106l-.003.012a1.31 1.31 0 01-.035.104l-.004.011a1.267 1.267 0 01-.042.094l-.008.017a.978.978 0 01-.047.083l-.013.022c-.016.026-.034.05-.052.074-.006.008-.01.017-.017.024-.025.032-.05.062-.078.091l-3.562 3.75a1.154 1.154 0 01-.84.366c-.304 0-.608-.122-.84-.366a1.297 1.297 0 010-1.768l1.536-1.616z" fill="#FC3636"/></symbol><symbol id="wechat-usage" viewBox="0 0 17 17"><g clip-path="url(#wechat-usageclip0)" fill="#fff"><path d="M10.652 1.297c3.411 0 6.176 2.305 6.176 5.147 0 1.639-.925 3.092-2.358 4.033l.814 1.628-2.219-.95a7.01 7.01 0 01-1.497.373c.072-.314.113-.636.113-.967 0-2.838-2.77-5.147-6.176-5.147a7.47 7.47 0 00-.917.063c.543-2.38 3.05-4.18 6.064-4.18zm2.058 3.86a.772.772 0 100-1.545.772.772 0 000 1.545zm-4.117 0a.772.772 0 100-1.545.772.772 0 000 1.545z"/><path d="M.358 10.56c0-2.273 2.305-4.117 5.147-4.117s5.147 1.844 5.147 4.118-2.305 4.117-5.147 4.117c-.468 0-.912-.066-1.344-.16l-2.774 1.19.96-1.918c-1.203-.753-1.99-1.912-1.99-3.23zm6.69-.257a.772.772 0 100-1.544.772.772 0 000 1.544zm-3.087 0a.772.772 0 100-1.544.772.772 0 000 1.544z"/></g></symbol></defs><view id="view-behance-usage" viewBox="10 10 21.18 20"></view><view id="view-fb-usage" viewBox="70 10 11.43 20"></view><view id="view-group-usage" viewBox="110 10 21.18 20"></view><view id="view-inst-usage" viewBox="170 10 20 20"></view><view id="view-red-arrow-usage" viewBox="210 10 38 20"></view><view id="view-wechat-usage" viewBox="270 10 20 20"></view><use id="behance-usage" xlink:href="#behance-usage" width="21.18" height="20" x="10" y="10"></use><use id="fb-usage" xlink:href="#fb-usage" width="11.43" height="20" x="70" y="10"></use><use id="group-usage" xlink:href="#group-usage" width="21.18" height="20" x="110" y="10"></use><use id="inst-usage" xlink:href="#inst-usage" width="20" height="20" x="170" y="10"></use><use id="red-arrow-usage" xlink:href="#red-arrow-usage" width="38" height="20" x="210" y="10"></use><use id="wechat-usage" xlink:href="#wechat-usage" width="20" height="20" x="270" y="10"></use></svg>